<svg width="743" height="249" viewBox="0 0 743 249" fill="none" xmlns="http://www.w3.org/2000/svg">
<path d="M212.397 106.861H365.898V46.3611H251.065L212.397 106.861Z" fill="#E87D40"/>
<path d="M196.753 84.6603C196.753 70.6172 193.94 57.6993 188.596 46.3826H0.647461V106.861H194.2C195.888 99.8502 196.753 92.4283 196.753 84.6603ZM95.5087 105.26H87.3295V67.6095H96.2227C106.89 67.6095 114.334 75.4209 114.334 86.4346C114.334 98.5087 105.441 105.26 95.5087 105.26Z" fill="#E87D40"/>
<path d="M385.783 106.861H579.357C581.023 99.8502 581.91 92.4283 581.91 84.6603C581.91 70.6172 579.098 57.6993 573.753 46.3826H385.805V106.861H385.783ZM481.337 67.5879C492.004 67.5879 499.448 75.3992 499.448 86.413C499.448 98.487 490.555 105.238 480.623 105.238H472.444V67.5879H481.337Z" fill="#E87D40"/>
<path d="M608.222 106.861H693.649C705.464 75.3992 742.703 73.4518 742.703 73.4518V46.3826H636.85C621.032 66.3761 613.351 89.3341 608.222 106.861Z" fill="#E87D40"/>
<path d="M742.681 32.8593V1.41919C698.496 1.41919 669.242 14.6833 649.356 32.8593H742.681Z" fill="#F3BB2C"/>
<path d="M288.975 120.364H203.764L164.123 182.378H249.009L288.975 120.364Z" fill="#CC3A27"/>
<path d="M602.835 125.102C584.053 177.813 548.566 172.598 548.566 172.598V182.378H667.359C681.77 158.317 688.218 133.801 690.902 120.364H604.349C603.808 122.073 603.311 123.653 602.835 125.102Z" fill="#CC3A27"/>
<path d="M87.3295 170.629H106.155C146.423 170.629 176.716 150.938 189.742 120.364H0.647461V182.378H87.3295V170.629Z" fill="#CC3A27"/>
<path d="M548.545 195.88V248.785C602.9 248.785 637.001 224.291 658.293 195.88H548.545Z" fill="black"/>
<path d="M87.3295 195.88H0.647461V248.785H87.3295V195.88Z" fill="black"/>
<path d="M365.898 195.88H297.002V248.785H365.898V195.88Z" fill="black"/>
<path d="M155.489 195.88L121.669 248.785H206.209L240.311 195.88H155.489Z" fill="black"/>
<path d="M365.898 120.364H297.002V182.378H365.898V120.364Z" fill="#CC3A27"/>
<path d="M472.465 195.88H385.783V248.785H472.465V195.88Z" fill="black"/>
<path d="M180.417 32.8591C164.989 12.541 139.153 0.0991211 105.073 0.0991211H0.625977V32.8591H180.417Z" fill="#F3BB2C"/>
<path d="M565.574 32.8591C550.146 12.541 524.31 0.0991211 490.23 0.0991211H385.783V32.8591H565.574Z" fill="#F3BB2C"/>
<path d="M472.465 170.629H491.29C531.559 170.629 561.852 150.938 574.878 120.364H385.783V182.378H472.465V170.629Z" fill="#CC3A27"/>
<path d="M365.898 32.8593V1.41919H279.8L259.698 32.8593H365.898Z" fill="#F3BB2C"/>
</svg>
