<svg width="235" height="86" viewBox="0 0 235 86" fill="none" xmlns="http://www.w3.org/2000/svg">
<path d="M166.199 84.6555V59.5199C162.164 61.121 157.732 61.941 152.994 61.9606V84.6555H89.6017V57.242L71.9378 84.6555H1.1781V1.18481H37.1372C55.7318 1.18481 68.4428 12.4574 69.3344 29.4444L87.1545 1.56881H116.566L117.751 1.55578H152.525C171.81 1.55578 184.774 13.5378 184.774 31.3644C184.774 31.9241 184.761 32.4839 184.735 33.0371C186.473 27.7067 189.109 21.374 193.912 15.6986C201.846 6.32647 213.386 1.56881 228.205 1.56881H233.835V33.4536L228.498 33.7335C228.212 33.753 221.202 34.2672 219.178 39.9555C218.794 42.7867 217.167 52.1458 211.726 61.6677C205.732 72.1593 193.945 84.6555 171.836 84.6555H166.199V84.6555ZM37.6123 79.0712L49.8807 59.8844C46.1058 61.2511 41.999 61.9475 37.6123 61.9671V79.0712Z" fill="#FBF3E9"/>
<path d="M37.1436 2.36906C55.7252 2.36906 68.2019 14.0192 68.2019 31.3641C68.2019 32.0996 68.1693 32.822 68.1238 33.538L87.7988 2.75307H117.751V2.74004H152.525C171.107 2.74004 183.583 14.0192 183.583 31.3641C183.583 39.5648 180.746 46.5939 175.832 51.7225C178.142 50.6096 181.136 47.9541 183.388 41.654C183.675 40.8079 183.98 39.7275 184.338 38.4779C185.985 32.6919 188.478 23.951 194.81 16.4663C202.51 7.36754 213.743 2.75957 228.199 2.75957H232.644V32.3339L228.433 32.5552C228.121 32.5747 220.239 33.167 218.013 39.6819C217.714 41.9534 216.178 51.4817 210.691 61.0816C204.853 71.2999 193.372 83.4772 171.829 83.4772H167.384V57.7298C163.147 59.7019 158.233 60.7822 152.831 60.7822H151.809V83.4772H119.684H117.751H90.7927V53.226L71.2934 83.4772H36.4277H36.2064H2.36907V2.36906H37.1436ZM36.4277 83.1257L52.9656 57.2547C48.5139 59.5261 43.2681 60.7758 37.4495 60.7758H36.4277V83.1257V83.1257ZM37.1436 0H2.36907H0V2.36906V83.4707V85.8397H2.36907H36.2064H36.4277H71.2934H72.5886L73.2915 84.7528L88.4236 61.2704V83.4707V85.8397H90.7927H117.751H119.684H151.809H154.178V83.4707V63.1253C158.005 63.0016 161.63 62.3638 165.008 61.2183V83.4707V85.8397H167.377H171.823C194.505 85.8397 206.597 73.0116 212.741 62.2532C218.208 52.6858 219.894 43.2811 220.317 40.2416C222.139 35.3994 228.511 34.9177 228.576 34.9177L232.755 34.6965L235 34.5793V32.3274V2.75307V0.383995H232.631H228.186C213.002 0.383995 201.163 5.27834 192.988 14.9303C189.675 18.8484 187.371 23.0464 185.686 27.023C183.74 10.9081 170.898 0.370985 152.512 0.370985H117.738H115.369V0.383995H87.7923H86.4971L85.8007 1.47741L70.1674 25.9296C69.1326 19.0697 66.1062 13.1601 61.2509 8.63019C55.2045 2.98087 46.8672 0 37.1436 0ZM38.7968 63.1253C41.706 63.0342 44.4916 62.6437 47.1406 61.9668L38.7968 75.0162V63.1253Z" fill="#FBF3E9"/>
<path d="M69.6012 37.6319H115.772V19.4343H81.2318L69.6012 37.6319Z" fill="#E87D40"/>
<path d="M64.8956 30.9541C64.8956 26.7301 64.0495 22.8446 62.4419 19.4407H5.90967V37.6318H64.1276C64.6353 35.523 64.8956 33.2906 64.8956 30.9541ZM34.4426 37.1501H31.9824V25.8254H34.6574C37.8661 25.8254 40.105 28.175 40.105 31.4878C40.105 35.1195 37.43 37.1501 34.4426 37.1501Z" fill="#E87D40"/>
<path d="M121.753 37.6318H179.978C180.479 35.523 180.746 33.2906 180.746 30.9541C180.746 26.7301 179.9 22.8446 178.292 19.4407H121.76V37.6318H121.753ZM150.494 25.819C153.703 25.819 155.942 28.1685 155.942 31.4813C155.942 35.113 153.267 37.1436 150.28 37.1436H147.819V25.819H150.494Z" fill="#E87D40"/>
<path d="M188.66 37.6318H214.355C217.909 28.1685 229.11 27.5827 229.11 27.5827V19.4407H197.271C192.513 25.4545 190.202 32.3599 188.66 37.6318Z" fill="#E87D40"/>
<path d="M229.103 15.373V5.91626C215.813 5.91626 207.014 9.90593 201.033 15.373H229.103Z" fill="#F3BB2C"/>
<path d="M92.6345 41.6931H67.0043L55.0808 60.3463H80.6134L92.6345 41.6931Z" fill="#CC3A27"/>
<path d="M187.039 43.1185C181.39 58.973 170.716 57.4045 170.716 57.4045V60.3463H206.447C210.782 53.1089 212.722 45.7349 213.529 41.6931H187.495C187.332 42.2073 187.183 42.6824 187.039 43.1185Z" fill="#CC3A27"/>
<path d="M31.9824 56.8122H37.6448C49.757 56.8122 58.8688 50.8895 62.7869 41.6931H5.90967V60.3463H31.9824V56.8122Z" fill="#CC3A27"/>
<path d="M170.71 64.4075V80.3206C187.059 80.3206 197.316 72.953 203.72 64.4075H170.71Z" fill="black"/>
<path d="M31.9824 64.4075H5.90967V80.3206H31.9824V64.4075Z" fill="black"/>
<path d="M115.772 64.4075H95.0492V80.3206H115.772V64.4075Z" fill="black"/>
<path d="M52.4839 64.4075L42.3113 80.3206H67.7397L77.997 64.4075H52.4839Z" fill="black"/>
<path d="M115.772 41.6931H95.0492V60.3463H115.772V41.6931Z" fill="#CC3A27"/>
<path d="M147.826 64.4075H121.753V80.3206H147.826V64.4075Z" fill="black"/>
<path d="M59.9818 15.373C55.3413 9.26163 47.5702 5.51929 37.3194 5.51929H5.9032V15.373H59.9818Z" fill="#F3BB2C"/>
<path d="M175.832 15.373C171.191 9.26163 163.42 5.51929 153.169 5.51929H121.753V15.373H175.832Z" fill="#F3BB2C"/>
<path d="M147.826 56.8122H153.488C165.6 56.8122 174.712 50.8895 178.63 41.6931H121.753V60.3463H147.826V56.8122Z" fill="#CC3A27"/>
<path d="M115.772 15.373V5.91626H89.8751L83.8287 15.373H115.772Z" fill="#F3BB2C"/>
</svg>
