<svg width="297" height="29" viewBox="0 0 297 29" fill="none" xmlns="http://www.w3.org/2000/svg">
<g clip-path="url(#clip0_217_33)">
<path d="M162.217 20.9225L157.773 25.6725C157.677 25.7757 157.56 25.858 157.431 25.9143C157.301 25.9707 157.162 25.9998 157.021 26H135.956C135.855 25.9999 135.757 25.9707 135.673 25.9158C135.589 25.8609 135.523 25.7828 135.482 25.691C135.442 25.5992 135.43 25.4977 135.446 25.399C135.463 25.3002 135.509 25.2085 135.577 25.135L140.016 20.385C140.112 20.2818 140.228 20.1995 140.357 20.1431C140.487 20.0868 140.627 20.0576 140.768 20.0575H161.833C161.934 20.0554 162.034 20.0833 162.12 20.1376C162.205 20.1919 162.273 20.2702 162.314 20.3626C162.355 20.4551 162.367 20.5576 162.35 20.6572C162.333 20.7568 162.286 20.8491 162.217 20.9225ZM157.773 11.355C157.676 11.2523 157.56 11.1703 157.431 11.1139C157.301 11.0576 157.162 11.0282 157.021 11.0275H135.956C135.855 11.0275 135.757 11.0568 135.673 11.1117C135.589 11.1666 135.523 11.2447 135.482 11.3365C135.442 11.4283 135.43 11.5298 135.446 11.6285C135.463 11.7273 135.509 11.819 135.577 11.8925L140.016 16.645C140.112 16.7477 140.228 16.8297 140.358 16.886C140.487 16.9423 140.627 16.9718 140.768 16.9725H161.833C161.933 16.9719 162.031 16.9423 162.115 16.8873C162.199 16.8322 162.264 16.754 162.304 16.6623C162.344 16.5707 162.356 16.4693 162.339 16.3708C162.322 16.2723 162.277 16.1808 162.209 16.1075L157.773 11.355ZM135.956 7.94247H157.021C157.162 7.94235 157.301 7.91318 157.431 7.85682C157.56 7.8005 157.677 7.71815 157.773 7.61497L162.217 2.86499C162.286 2.79162 162.333 2.69932 162.35 2.59969C162.367 2.50007 162.355 2.39758 162.314 2.30511C162.273 2.21265 162.205 2.13434 162.12 2.08005C162.034 2.02576 161.934 1.9979 161.833 1.99999H140.768C140.627 2.00014 140.487 2.02929 140.357 2.08564C140.228 2.14198 140.112 2.22431 140.016 2.32749L135.577 7.07748C135.509 7.15095 135.463 7.2427 135.446 7.34145C135.43 7.4402 135.442 7.54167 135.482 7.63347C135.523 7.72528 135.589 7.8034 135.673 7.85827C135.757 7.91318 135.855 7.94242 135.956 7.94247Z" fill="url(#paint0_linear_217_33)"/>
<path d="M187.898 12.1501H176.629V8.45005H190.827V4.75005H176.591C176.104 4.74743 175.622 4.84033 175.172 5.02345C174.722 5.2066 174.312 5.47638 173.966 5.8174C173.62 6.15843 173.345 6.56403 173.157 7.011C172.968 7.458 172.869 7.93765 172.867 8.42255V12.1726C172.869 12.6579 172.967 13.1381 173.155 13.5856C173.343 14.0332 173.618 14.4394 173.964 14.7809C174.31 15.1225 174.72 15.3927 175.171 15.5762C175.621 15.7596 176.104 15.8527 176.591 15.8501H187.876V19.5501H173.135V23.2501H187.898C188.385 23.2527 188.867 23.1598 189.317 22.9767C189.768 22.7935 190.178 22.5237 190.523 22.1827C190.869 21.8417 191.144 21.4361 191.333 20.9891C191.521 20.5421 191.62 20.0625 191.622 19.5776V15.8276C191.62 15.3422 191.523 14.8621 191.334 14.4145C191.146 13.9669 190.871 13.5607 190.525 13.2192C190.179 12.8776 189.769 12.6074 189.318 12.424C188.868 12.2405 188.385 12.1474 187.898 12.1501Z" fill="black"/>
<path d="M209.731 4.75H198.418C197.931 4.74605 197.448 4.83798 196.996 5.02053C196.545 5.20307 196.134 5.47263 195.787 5.8138C195.44 6.15495 195.164 6.56098 194.975 7.00863C194.786 7.45627 194.687 7.93675 194.684 8.4225V19.5775C194.687 20.0632 194.786 20.5437 194.975 20.9914C195.164 21.439 195.44 21.845 195.787 22.1862C196.134 22.5274 196.545 22.7969 196.996 22.9795C197.448 23.162 197.931 23.254 198.418 23.25H209.731C210.217 23.2526 210.699 23.1597 211.15 22.9766C211.6 22.7935 212.01 22.5237 212.356 22.1826C212.701 21.8416 212.977 21.436 213.165 20.989C213.354 20.5421 213.452 20.0624 213.455 19.5775V8.4225C213.452 7.9376 213.354 7.45795 213.165 7.01095C212.977 6.56398 212.701 6.15837 212.356 5.81735C212.01 5.47632 211.6 5.20655 211.15 5.0234C210.699 4.84028 210.217 4.74738 209.731 4.75ZM209.703 19.55H198.446V8.45H209.698L209.703 19.55Z" fill="black"/>
<path d="M249.353 4.75003H238.319C237.832 4.7474 237.35 4.8403 236.9 5.02343C236.45 5.20658 236.04 5.47635 235.694 5.81738C235.348 6.1584 235.073 6.564 234.885 7.01098C234.696 7.45798 234.597 7.93763 234.595 8.42253V23.25H238.357V17.1725H249.34V23.25H253.102V8.42253C253.1 7.9355 253 7.4538 252.81 7.00515C252.62 6.55653 252.343 6.14983 251.994 5.80845C251.646 5.4671 251.233 5.19785 250.78 5.0162C250.326 4.83455 249.842 4.7441 249.353 4.75003ZM249.325 13.4725H238.342V8.45003H249.325V13.4725Z" fill="black"/>
<path d="M293.276 4.75005H282.242C281.756 4.74743 281.274 4.84033 280.823 5.02345C280.373 5.2066 279.963 5.47638 279.617 5.8174C279.271 6.15843 278.996 6.56403 278.808 7.011C278.619 7.458 278.521 7.93765 278.518 8.42255V23.2501H282.28V17.1726H293.238V23.2501H297V8.42255C296.998 7.93765 296.899 7.458 296.71 7.011C296.522 6.56403 296.247 6.15843 295.901 5.8174C295.555 5.47638 295.145 5.2066 294.695 5.02345C294.245 4.84033 293.763 4.74743 293.276 4.75005ZM293.238 13.4726H282.255V8.45005H293.238V13.4726Z" fill="black"/>
<path d="M271.421 19.55H269.917L264.537 6.30003C264.353 5.84291 264.036 5.45113 263.627 5.17498C263.217 4.89881 262.735 4.75083 262.24 4.75003H258.903C258.578 4.74838 258.257 4.81046 257.956 4.93268C257.656 5.05493 257.383 5.23493 257.152 5.46243C256.922 5.68996 256.738 5.96048 256.613 6.25863C256.487 6.55676 256.422 6.87666 256.42 7.20003V23.25H260.182V8.45003H261.686L267.063 21.7C267.25 22.1563 267.57 22.5465 267.981 22.8208C268.392 23.0951 268.875 23.241 269.37 23.24H272.708C273.032 23.2417 273.354 23.1796 273.654 23.0574C273.954 22.9352 274.227 22.7551 274.458 22.5276C274.689 22.3001 274.872 22.0296 274.998 21.7315C275.123 21.4333 275.189 21.1134 275.19 20.79V4.75003H271.421V19.55Z" fill="black"/>
<path d="M220.539 4.75H216.777V19.5775C216.78 20.0635 216.879 20.5441 217.068 20.9919C217.258 21.4398 217.534 21.8459 217.881 22.1871C218.228 22.5283 218.639 22.7978 219.091 22.9802C219.543 23.1626 220.026 23.2543 220.514 23.25H231.799V19.55H220.539V4.75Z" fill="black"/>
</g>
<path d="M3.93 20H1.29V5.25H6.03C7.16333 5.25 8.12 5.46667 8.9 5.9C9.68667 6.32667 10.2833 6.91 10.69 7.65C11.1033 8.38333 11.31 9.20333 11.31 10.11C11.31 11.0233 11.1033 11.86 10.69 12.62C10.2767 13.38 9.67333 13.99 8.88 14.45C8.09333 14.9033 7.14333 15.13 6.03 15.13H3.93V20ZM3.93 14.29L2.74 13.04H5.74C6.35333 13.04 6.87667 12.9233 7.31 12.69C7.74333 12.45 8.07333 12.1133 8.3 11.68C8.53333 11.24 8.65 10.7167 8.65 10.11C8.65 9.50333 8.53667 8.99667 8.31 8.59C8.09 8.17667 7.76333 7.86667 7.33 7.66C6.89667 7.45333 6.36667 7.35 5.74 7.35H2.74L3.93 6.04V14.29ZM18.1025 20.21C16.9825 20.21 15.9958 19.9767 15.1425 19.51C14.2892 19.0367 13.6192 18.3833 13.1325 17.55C12.6525 16.7167 12.4125 15.7633 12.4125 14.69C12.4125 13.61 12.6525 12.66 13.1325 11.84C13.6192 11.0133 14.2892 10.3667 15.1425 9.9C15.9958 9.43333 16.9825 9.2 18.1025 9.2C19.2225 9.2 20.2092 9.43333 21.0625 9.9C21.9158 10.3667 22.5825 11.0133 23.0625 11.84C23.5492 12.66 23.7925 13.61 23.7925 14.69C23.7925 15.7633 23.5492 16.7167 23.0625 17.55C22.5825 18.3833 21.9158 19.0367 21.0625 19.51C20.2092 19.9767 19.2225 20.21 18.1025 20.21ZM18.1025 18.06C18.7092 18.06 19.2392 17.92 19.6925 17.64C20.1458 17.36 20.4992 16.97 20.7525 16.47C21.0058 15.9633 21.1325 15.37 21.1325 14.69C21.1325 14.01 21.0058 13.4233 20.7525 12.93C20.4992 12.43 20.1458 12.0433 19.6925 11.77C19.2392 11.4967 18.7092 11.36 18.1025 11.36C17.5025 11.36 16.9725 11.4967 16.5125 11.77C16.0592 12.0433 15.7058 12.43 15.4525 12.93C15.1992 13.4233 15.0725 14.01 15.0725 14.69C15.0725 15.37 15.1992 15.9633 15.4525 16.47C15.7058 16.97 16.0592 17.36 16.5125 17.64C16.9725 17.92 17.5025 18.06 18.1025 18.06ZM34.2941 20L31.8241 9.38H33.8341L36.2441 19.17H35.8141L37.3541 9.38H40.0841L37.9041 20H34.2941ZM26.9741 20L24.7841 9.38H27.5141L29.0641 19.17H28.6341L31.0241 9.38H33.0341L30.6041 20H26.9741ZM42.6516 15.54V13.67H50.0816L49.7816 14.17C49.7816 14.13 49.7816 14.0867 49.7816 14.04C49.7816 13.9867 49.7816 13.9433 49.7816 13.91C49.7816 13.45 49.6782 13.02 49.4716 12.62C49.2649 12.2133 48.9516 11.8867 48.5316 11.64C48.1116 11.3867 47.5782 11.26 46.9316 11.26C46.2916 11.26 45.7349 11.3967 45.2616 11.67C44.7949 11.9367 44.4316 12.3233 44.1716 12.83C43.9182 13.3367 43.7916 13.9433 43.7916 14.65C43.7916 15.3767 43.9149 16.0033 44.1616 16.53C44.4082 17.05 44.7682 17.45 45.2416 17.73C45.7216 18.0033 46.3049 18.14 46.9916 18.14C47.4582 18.14 47.8616 18.0967 48.2016 18.01C48.5416 17.9233 48.8182 17.8067 49.0316 17.66C49.2516 17.5067 49.4149 17.3433 49.5216 17.17C49.6349 16.9967 49.7016 16.8233 49.7216 16.65H52.3416C52.3016 17.0967 52.1516 17.5333 51.8916 17.96C51.6382 18.38 51.2816 18.7633 50.8216 19.11C50.3616 19.45 49.8016 19.7233 49.1416 19.93C48.4882 20.13 47.7416 20.23 46.9016 20.23C45.7616 20.23 44.7649 19.9967 43.9116 19.53C43.0582 19.0633 42.3916 18.4133 41.9116 17.58C41.4382 16.7467 41.2016 15.7933 41.2016 14.72C41.2016 13.62 41.4416 12.6567 41.9216 11.83C42.4082 11.0033 43.0816 10.36 43.9416 9.9C44.8016 9.43333 45.7882 9.2 46.9016 9.2C48.0482 9.2 49.0382 9.43333 49.8716 9.9C50.7116 10.3667 51.3582 11.0167 51.8116 11.85C52.2649 12.6767 52.4916 13.64 52.4916 14.74C52.4916 14.88 52.4882 15.03 52.4816 15.19C52.4749 15.35 52.4649 15.4667 52.4516 15.54H42.6516ZM54.6598 20V9.38H57.2898V12.91L56.6798 12.57C56.7465 12.11 56.8698 11.6767 57.0498 11.27C57.2298 10.8567 57.4698 10.4967 57.7698 10.19C58.0698 9.87667 58.4332 9.63333 58.8598 9.46C59.2865 9.28667 59.7732 9.2 60.3198 9.2C60.7532 9.2 61.0932 9.23333 61.3398 9.3C61.5932 9.36 61.7498 9.41 61.8098 9.45L61.3298 11.86C61.2632 11.8133 61.1265 11.7567 60.9198 11.69C60.7198 11.6167 60.4498 11.58 60.1098 11.58C59.5698 11.58 59.1165 11.6733 58.7498 11.86C58.3898 12.04 58.1032 12.2867 57.8898 12.6C57.6765 12.9067 57.5232 13.2467 57.4298 13.62C57.3365 13.9867 57.2898 14.3533 57.2898 14.72V20H54.6598ZM64.2531 15.54V13.67H71.6831L71.3831 14.17C71.3831 14.13 71.3831 14.0867 71.3831 14.04C71.3831 13.9867 71.3831 13.9433 71.3831 13.91C71.3831 13.45 71.2798 13.02 71.0731 12.62C70.8665 12.2133 70.5531 11.8867 70.1331 11.64C69.7131 11.3867 69.1798 11.26 68.5331 11.26C67.8931 11.26 67.3365 11.3967 66.8631 11.67C66.3965 11.9367 66.0331 12.3233 65.7731 12.83C65.5198 13.3367 65.3931 13.9433 65.3931 14.65C65.3931 15.3767 65.5165 16.0033 65.7631 16.53C66.0098 17.05 66.3698 17.45 66.8431 17.73C67.3231 18.0033 67.9065 18.14 68.5931 18.14C69.0598 18.14 69.4631 18.0967 69.8031 18.01C70.1431 17.9233 70.4198 17.8067 70.6331 17.66C70.8531 17.5067 71.0165 17.3433 71.1231 17.17C71.2365 16.9967 71.3031 16.8233 71.3231 16.65H73.9431C73.9031 17.0967 73.7531 17.5333 73.4931 17.96C73.2398 18.38 72.8831 18.7633 72.4231 19.11C71.9631 19.45 71.4031 19.7233 70.7431 19.93C70.0898 20.13 69.3431 20.23 68.5031 20.23C67.3631 20.23 66.3665 19.9967 65.5131 19.53C64.6598 19.0633 63.9931 18.4133 63.5131 17.58C63.0398 16.7467 62.8031 15.7933 62.8031 14.72C62.8031 13.62 63.0431 12.6567 63.5231 11.83C64.0098 11.0033 64.6831 10.36 65.5431 9.9C66.4031 9.43333 67.3898 9.2 68.5031 9.2C69.6498 9.2 70.6398 9.43333 71.4731 9.9C72.3131 10.3667 72.9598 11.0167 73.4131 11.85C73.8665 12.6767 74.0931 13.64 74.0931 14.74C74.0931 14.88 74.0898 15.03 74.0831 15.19C74.0765 15.35 74.0665 15.4667 74.0531 15.54H64.2531ZM80.6714 20.22C79.7981 20.22 78.9881 20.01 78.2414 19.59C77.5014 19.1633 76.9081 18.5367 76.4614 17.71C76.0147 16.8833 75.7914 15.8667 75.7914 14.66C75.7914 13.4867 76.0181 12.4933 76.4714 11.68C76.9314 10.8667 77.5314 10.25 78.2714 9.83C79.0181 9.41 79.8181 9.2 80.6714 9.2C81.5047 9.2 82.2747 9.40667 82.9814 9.82C83.6881 10.2267 84.2547 10.7933 84.6814 11.52C85.1081 12.2467 85.3214 13.08 85.3214 14.02C85.3214 14.0467 85.3214 14.0733 85.3214 14.1C85.3214 14.1267 85.3214 14.1533 85.3214 14.18L84.0214 14.21C84.0214 14.19 84.0214 14.17 84.0214 14.15C84.0214 14.1233 84.0214 14.1 84.0214 14.08C84.0214 13.5533 83.8881 13.0933 83.6214 12.7C83.3614 12.3067 83.0214 12 82.6014 11.78C82.1881 11.5533 81.7481 11.44 81.2814 11.44C80.5147 11.44 79.8614 11.7 79.3214 12.22C78.7814 12.7333 78.5114 13.5467 78.5114 14.66C78.5114 15.7667 78.7814 16.5833 79.3214 17.11C79.8614 17.6367 80.5147 17.9 81.2814 17.9C81.7681 17.9 82.2181 17.7833 82.6314 17.55C83.0447 17.3167 83.3781 16.9967 83.6314 16.59C83.8914 16.1767 84.0214 15.7033 84.0214 15.17L85.3214 15.23C85.3214 16.1633 85.1114 17.01 84.6914 17.77C84.2781 18.5233 83.7214 19.12 83.0214 19.56C82.3214 20 81.5381 20.22 80.6714 20.22ZM84.0214 20V4.37H86.6614V20H84.0214ZM100.23 20.22C99.403 20.22 98.6364 20.0067 97.9297 19.58C97.2297 19.1467 96.663 18.5567 96.2297 17.81C95.803 17.0633 95.5897 16.2233 95.5897 15.29C95.5897 15.2633 95.5897 15.24 95.5897 15.22C95.5897 15.1933 95.5897 15.17 95.5897 15.15L96.8897 15.12C96.8897 15.1333 96.8897 15.15 96.8897 15.17C96.8897 15.19 96.8897 15.2067 96.8897 15.22C96.8897 15.74 97.0197 16.2033 97.2797 16.61C97.5397 17.01 97.8764 17.3267 98.2897 17.56C98.7097 17.7867 99.1564 17.9 99.6297 17.9C100.396 17.9 101.05 17.6367 101.59 17.11C102.13 16.5833 102.4 15.7667 102.4 14.66C102.4 13.5467 102.13 12.7333 101.59 12.22C101.056 11.7 100.403 11.44 99.6297 11.44C99.163 11.44 98.7197 11.5533 98.2997 11.78C97.8864 12 97.5464 12.3067 97.2797 12.7C97.0197 13.0933 96.8897 13.5533 96.8897 14.08L95.5897 14.02C95.5897 13.08 95.803 12.2467 96.2297 11.52C96.663 10.7933 97.2297 10.2267 97.9297 9.82C98.6364 9.40667 99.403 9.2 100.23 9.2C101.09 9.2 101.89 9.41333 102.63 9.84C103.376 10.26 103.976 10.8767 104.43 11.69C104.89 12.4967 105.12 13.4867 105.12 14.66C105.12 15.8667 104.896 16.8833 104.45 17.71C104.003 18.5367 103.41 19.1633 102.67 19.59C101.93 20.01 101.116 20.22 100.23 20.22ZM94.2497 20V4.37H96.8897V20H94.2497ZM107.44 24.56C107.126 24.56 106.846 24.5433 106.6 24.51C106.353 24.4833 106.2 24.4567 106.14 24.43V22.38C106.226 22.42 106.373 22.45 106.58 22.47C106.793 22.4967 107.013 22.51 107.24 22.51C107.606 22.51 107.923 22.4367 108.19 22.29C108.463 22.1433 108.696 21.94 108.89 21.68C109.083 21.4267 109.236 21.13 109.35 20.79L109.58 20.12L105.92 9.38H108.67L111.18 18.24H110.86L113.31 9.38H116.01L112.29 20.65C112.03 21.43 111.713 22.1133 111.34 22.7C110.973 23.2867 110.483 23.7433 109.87 24.07C109.256 24.3967 108.446 24.56 107.44 24.56Z" fill="black"/>
<defs>
<linearGradient id="paint0_linear_217_33" x1="137.711" y1="26.5725" x2="159.723" y2="1.67994" gradientUnits="userSpaceOnUse">
<stop offset="0.08" stop-color="#9945FF"/>
<stop offset="0.3" stop-color="#8752F3"/>
<stop offset="0.5" stop-color="#5497D5"/>
<stop offset="0.6" stop-color="#43B4CA"/>
<stop offset="0.72" stop-color="#28E0B9"/>
<stop offset="0.97" stop-color="#19FB9B"/>
</linearGradient>
<clipPath id="clip0_217_33">
<rect width="162" height="24" fill="white" transform="translate(135 2)"/>
</clipPath>
</defs>
</svg>
